<?xml version="1.0" standalone="no"?>
<!DOCTYPE svg PUBLIC "-//W3C//DTD SVG 1.1//EN" "http://www.w3.org/Graphics/SVG/1.1/DTD/svg11.dtd" >
<svg xmlns="http://www.w3.org/2000/svg">
<metadata></metadata>
<defs>
<font id="montserratbold" horiz-adv-x="1525" >
<font-face units-per-em="2048" ascent="1638" descent="-410" />
<missing-glyph horiz-adv-x="540" />
<glyph horiz-adv-x="0" />
<glyph unicode="&#xd;" horiz-adv-x="681" />
<glyph horiz-adv-x="0" />
<glyph horiz-adv-x="0" />
<glyph unicode=" "  horiz-adv-x="540" />
<glyph unicode="&#x09;" horiz-adv-x="540" />
<glyph unicode="&#xa0;" horiz-adv-x="540" />
<glyph unicode="!" horiz-adv-x="645" d="M141 164q0 76 52.5 128t128 52t128 -52t52.5 -128t-52.5 -128t-128 -52t-128 52t-52.5 128zM141 1178v254h363v-254l-62 -738h-241z" />
<glyph unicode="&#x22;" horiz-adv-x="886" d="M145 883v549h244v-549h-244zM498 883v549h243v-549h-243z" />
<glyph unicode="#" horiz-adv-x="1529" d="M90 311l55 283h191l43 256h-219l55 283h211l55 331h310l-56 -331h185l55 331h311l-59 -331h215l-56 -283h-206l-43 -256h235l-55 -283h-227l-54 -311h-307l53 311h-186l-53 -311h-310l54 311h-197zM643 594h186q27 164 45 256h-186z" />
<glyph unicode="$" horiz-adv-x="1300" d="M74 244l190 231q160 -139 289 -178v305q-215 55 -315.5 148.5t-100.5 268.5t115 288.5t301 136.5v100h217v-104q205 -29 408 -170l-168 -242q-129 92 -240 123v-295q221 -57 326.5 -153.5t105.5 -272.5t-117.5 -290.5t-314.5 -137.5v-143h-217v149q-260 41 -479 236z M465 1046.5q0 -81.5 88 -124.5v237q-88 -31 -88 -112.5zM770 287q104 33 104 127q0 43 -22.5 71.5t-81.5 53.5v-252z" />
<glyph unicode="%" horiz-adv-x="1677" d="M131 1109q0 120 86 204t216 84t216 -84t86 -205t-86 -204t-216 -83t-216 84t-86 204zM143 0l1028 1432h351l-1026 -1432h-353zM348 1108q0 -45 23.5 -72.5t60.5 -27.5t61.5 27.5t24.5 72.5t-24.5 74.5t-60.5 29.5t-60.5 -29.5t-24.5 -74.5zM938 271.5q0 119.5 86 203.5 t216 84t216 -84t86 -204.5t-86 -203.5t-216 -83t-216 84t-86 203.5zM1155 270q0 -45 23.5 -72.5t60.5 -27.5t61.5 27.5t24.5 72.5t-24.5 75t-60.5 30t-60.5 -30t-24.5 -75z" />
<glyph unicode="&#x26;" horiz-adv-x="1433" d="M96 416q0 225 301 399q-68 82 -98.5 144.5t-30.5 146.5q0 174 126 266t298 92t294 -89t122 -249q0 -201 -293 -372q115 -143 172 -207q51 94 78 198l240 -172q-47 -129 -115 -239l203 -201l-203 -192l-178 182q-172 -139 -398.5 -139t-372 115.5t-145.5 316.5zM401 406 q0 -72 59.5 -119t154 -47t202.5 90q-150 158 -258 286q-158 -98 -158 -210zM575 1105q0 -54 82 -157q154 82 154 154q0 59 -37 90t-82 31t-81 -32t-36 -86z" />
<glyph unicode="'" horiz-adv-x="534" d="M145 883v549h244v-549h-244z" />
<glyph unicode="(" horiz-adv-x="741" d="M92 641q0 246 83 504t183 399h332q-123 -176 -208 -429t-85 -473t85 -474t208 -428h-332q-100 141 -183 398t-83 503z" />
<glyph unicode=")" horiz-adv-x="741" d="M51 -260q123 174 208 428t85 474t-85 473t-208 429h332q100 -141 183 -399t83 -504t-83 -503t-183 -398h-332z" />
<glyph unicode="*" horiz-adv-x="933" d="M113 1174l106 182l146 -96l-13 172h230l-13 -172l146 96l106 -182l-174 -87l172 -86l-104 -186l-146 100l13 -172h-230l13 172l-146 -100l-104 186l172 86z" />
<glyph unicode="+" horiz-adv-x="1196" d="M98 592v252h359v368h282v-368h359v-252h-359v-369h-282v369h-359z" />
<glyph unicode="," horiz-adv-x="608" d="M109 -203l77 228q-72 51 -71.5 133t55.5 134t133 52t134.5 -51t56.5 -120t-60 -165l-123 -211h-202z" />
<glyph unicode="-" horiz-adv-x="1003" d="M137 479v273h729v-273h-729z" />
<glyph unicode="." horiz-adv-x="589" d="M115 164q0 76 52 128t128 52t128 -52t52 -128t-52 -128t-128 -52t-128 52t-52 128z" />
<glyph unicode="/" horiz-adv-x="1257" d="M55 -229l858 1878h291l-860 -1878h-289z" />
<glyph unicode="0" horiz-adv-x="1413" d="M115 724q0 337 147.5 538.5t444.5 201.5t444 -201.5t147 -538.5t-147 -538.5t-444 -201.5t-444.5 201.5t-147.5 538.5zM428 723q0 -215 67.5 -346t211 -131t211 131t67.5 346t-67.5 346t-211 131t-211 -131t-67.5 -346z" />
<glyph unicode="1" horiz-adv-x="825" d="M63 1159v273h580v-1432h-307v1159h-273z" />
<glyph unicode="2" horiz-adv-x="1239" d="M94 1149q100 156 220 235.5t305.5 79.5t325.5 -117.5t140 -320.5q0 -111 -56 -212t-208 -259l-258 -268h565v-287h-1009v238l420 430q127 129 181 205.5t54 148.5t-47 120t-121 48q-135 0 -256 -193z" />
<glyph unicode="3" horiz-adv-x="1210" d="M74 152l131 254q203 -143 362 -144q96 0 158.5 47t62.5 136.5t-71.5 141.5t-198.5 52q-68 0 -190 -39v236l274 323h-448v273h876v-222l-293 -333q172 -29 266.5 -145t94.5 -267q0 -225 -152.5 -353t-390.5 -128t-481 168z" />
<glyph unicode="4" horiz-adv-x="1204" d="M74 342v244l510 846h348l-486 -814h203v250h307v-250h162v-276h-162v-342h-307v342h-575z" />
<glyph unicode="5" horiz-adv-x="1220" d="M100 199l168 233q18 -18 49 -45t113 -71t164 -44t145.5 49.5t63.5 145.5t-68.5 148.5t-177 52.5t-252.5 -78l-133 143v699h864v-277h-565v-240q63 18 145 19q207 0 356.5 -125t149.5 -337t-154.5 -350t-381.5 -138q-291 0 -486 215z" />
<glyph unicode="6" horiz-adv-x="1290" d="M115 713q0 197 48 345t132 234q164 172 405 172q100 0 191.5 -29.5t140.5 -60.5t109 -78l-152 -225q-12 12 -35.5 32.5t-93 53.5t-135.5 33q-133 0 -206 -89t-89 -243q133 86 283 86q201 0 335 -131t134 -349t-144.5 -349t-363.5 -131q-152 0 -263.5 58t-172.5 163 q-123 203 -123 508zM459 471q0 -90 61.5 -154.5t153.5 -64.5t153.5 57.5t61.5 148.5t-55.5 153.5t-150.5 62.5t-159.5 -56.5t-64.5 -146.5z" />
<glyph unicode="7" horiz-adv-x="1185" d="M96 973v459h1034v-242l-579 -1190h-348l553 1157h-361v-184h-299z" />
<glyph unicode="8" horiz-adv-x="1314" d="M111 430q0 223 178 361q-129 121 -129 284.5t142 276t355 112.5t354.5 -112.5t141.5 -277.5t-127 -283q178 -137 178 -361q0 -188 -151.5 -317t-395 -129t-395 129t-151.5 317zM430 438q0 -92 71.5 -140t155.5 -48t156 48t72 140t-70 141.5t-158 49.5t-157.5 -49.5 t-69.5 -141.5zM463 1045.5q0 -72.5 58.5 -122t136 -49.5t136 49.5t58.5 122t-57.5 122t-137 49.5t-137 -49.5t-57.5 -122z" />
<glyph unicode="9" horiz-adv-x="1288" d="M106 983q0 217 144.5 349t363.5 132q152 0 263.5 -58t175.5 -163q121 -203 121 -508q0 -197 -48.5 -345t-130.5 -234q-168 -172 -407 -172q-100 0 -192.5 29.5t-139.5 59t-109 77.5l160 225q14 -12 38 -31.5t91.5 -52.5t126.5 -33q133 0 206 89t89 243q-131 -88 -283 -88 q-201 0 -335 132t-134 349zM406 989q0 -90 53 -152.5t148 -62.5t158.5 55.5t63.5 145.5t-61 155.5t-153.5 65.5t-150.5 -58.5t-58 -148.5z" />
<glyph unicode=":" horiz-adv-x="634" d="M137 164q0 76 52.5 128t128 52t128 -52t52.5 -128t-52.5 -128t-128 -52t-128 52t-52.5 128zM137 702.5q0 75.5 52.5 128t128 52.5t128 -52.5t52.5 -128t-52.5 -128t-128 -52.5t-128 52.5t-52.5 128z" />
<glyph unicode=";" horiz-adv-x="645" d="M131 -207l80 227q-74 53 -74 135.5t55.5 134.5t134.5 52t135 -51t56 -118t-59 -169l-127 -211h-201zM137 702.5q0 75.5 52.5 128t128 52.5t128 -52.5t52.5 -128t-52.5 -128t-128 -52.5t-128 52.5t-52.5 128z" />
<glyph unicode="&#x3c;" horiz-adv-x="1230" d="M84 668v280l995 469v-301l-657 -303l657 -311v-303z" />
<glyph unicode="=" horiz-adv-x="1202" d="M102 340v252h998v-252h-998zM102 850v252h998v-252h-998z" />
<glyph unicode="&#x3e;" horiz-adv-x="1230" d="M152 199v303l657 311l-657 303v301l995 -469v-280z" />
<glyph unicode="?" horiz-adv-x="1073" d="M72 1026q23 205 149.5 321.5t318 116.5t311.5 -104.5t120 -288.5q0 -82 -20.5 -122t-29 -57.5t-38 -52t-39.5 -44.5q-49 -49 -93 -92.5t-58.5 -71t-14.5 -82.5v-123h-311v154q0 84 21.5 126t90.5 113l139 144q31 37 31 95t-32.5 97t-86 39t-89 -46t-44.5 -122h-325z M346 164q0 76 52.5 128t128 52t128 -52t52.5 -128t-52.5 -128t-128 -52t-128 52t-52.5 128z" />
<glyph unicode="@" horiz-adv-x="1824" d="M98 552q0 343 243 585.5t585 242.5t571 -233.5t229 -581.5q0 -225 -93 -361t-244 -136q-78 0 -142.5 47t-89.5 118q-113 -145 -286 -145t-301 131t-128 333t116 340t304 138q63 0 120.5 -27.5t82.5 -54.5l27 -26v84h256v-654q0 -102 61 -102q55 0 97 88t42 221 q0 289 -165.5 478.5t-444.5 189.5t-469 -199t-190 -476.5t179 -461.5t443 -184q207 0 365 151l84 -145q-82 -72 -209 -116t-240 -44q-342 0 -572.5 228.5t-230.5 571.5zM705 562.5q0 -99.5 52 -173.5t142 -74t142.5 71t52.5 173.5t-54.5 170t-142.5 67.5t-140 -67.5 t-52 -167z" />
<glyph unicode="A" d="M-10 0l618 1432h310l618 -1432h-340l-133 309h-600l-133 -309h-340zM584 590h358l-178 416z" />
<glyph unicode="B" horiz-adv-x="1411" d="M176 0v1432h557q145 0 251 -35t159 -94q96 -111 96 -250q0 -168 -109 -250q-37 -29 -51 -36t-51 -24q133 -29 212 -120t79 -226q0 -150 -102 -264q-119 -133 -414 -133h-627zM496 270h219q137 0 205.5 34t68.5 133.5t-72.5 131t-232.5 31.5h-188v-330zM496 852h151 q133 0 197.5 28.5t64.5 124t-59 126t-201 30.5h-153v-309z" />
<glyph unicode="C" horiz-adv-x="1499" d="M90 719.5q0 318.5 218 531.5t534 213q352 0 590 -268l-199 -225q-152 188 -377 188q-180 0 -308 -117.5t-128 -317.5t121 -320.5t293 -120.5q236 0 385 186l204 -211q-244 -274 -574.5 -274t-544.5 208.5t-214 527z" />
<glyph unicode="D" horiz-adv-x="1574" d="M176 0v1432h506q383 0 588 -187.5t205 -521.5t-200 -528.5t-609 -194.5h-490zM496 283h202q220 0 337.5 110.5t117.5 321.5t-117.5 324.5t-361.5 113.5h-178v-870z" />
<glyph unicode="E" horiz-adv-x="1339" d="M176 0v1432h1032v-285h-712v-295h641v-272h-641v-297h735v-283h-1055z" />
<glyph unicode="F" horiz-adv-x="1253" d="M176 0v1432h983v-281h-663v-309h630v-281h-630v-561h-320z" />
<glyph unicode="G" horiz-adv-x="1536" d="M94 719.5q0 318.5 218 531.5t526.5 213t535.5 -202l-166 -240q-96 84 -177 115.5t-175 31.5q-182 0 -307 -123.5t-125 -326.5t120 -325t285.5 -122t276.5 64v393h321v-508q-212 -237 -586 -237h-3q-315 0 -529.5 208.5t-214.5 527z" />
<glyph unicode="H" horiz-adv-x="1560" d="M176 0v1432h320v-598h569v598h319v-1432h-319v563h-569v-563h-320z" />
<glyph unicode="I" horiz-adv-x="671" d="M176 0v1432h320v-1432h-320z" />
<glyph unicode="J" horiz-adv-x="1138" d="M53 186l166 230q129 -139 270 -140q68 0 116 52.5t48 156.5v672h-424v275h746v-934q0 -256 -132 -383t-339 -127q-258 0 -451 198z" />
<glyph unicode="K" horiz-adv-x="1454" d="M176 0v1432h320v-588l540 588h396l-570 -633q74 -102 272.5 -382t297.5 -417h-373l-420 565l-143 -159v-406h-320z" />
<glyph unicode="L" horiz-adv-x="1163" d="M176 0v1432h320v-1147h610v-285h-930z" />
<glyph unicode="M" horiz-adv-x="1953" d="M176 0v1432h432l369 -787l371 787h430v-1432h-320v901l-387 -782h-190l-385 782v-901h-320z" />
<glyph unicode="N" horiz-adv-x="1673" d="M176 0v1432h299l703 -922v922h319v-1432h-319l-682 897v-897h-320z" />
<glyph unicode="O" horiz-adv-x="1691" d="M94 725q0 315 217 527t534.5 212t534.5 -212t217 -527t-217 -527t-534.5 -212t-534.5 212t-217 527zM422 723.5q0 -191.5 123 -325.5t302 -134t302 134t123 325.5t-123 327t-302 135.5t-302 -135.5t-123 -327z" />
<glyph unicode="P" horiz-adv-x="1386" d="M176 0v1432h506q330 0 480.5 -128t150.5 -393.5t-154.5 -388.5t-472.5 -123h-190v-399h-320zM496 676h215q159 0 216.5 64.5t57.5 188.5t-74.5 176t-232.5 52h-182v-481z" />
<glyph unicode="Q" horiz-adv-x="1693" d="M94 725q0 315 217 527t534.5 212t534.5 -212t217 -527q0 -223 -113.5 -401.5t-305.5 -266.5q18 -31 58 -52t83 -21t84 13t65 32q53 43 76 84l166 -199q-176 -186 -440 -186q-123 0 -242 67.5t-182 190.5q-317 0 -534.5 212t-217.5 527zM422 723.5q0 -191.5 123 -325.5 t302 -134t302 134t123 325.5t-123 327t-302 135.5t-302 -135.5t-123 -327z" />
<glyph unicode="R" horiz-adv-x="1488" d="M176 0v1432h543q334 0 476 -113t142 -363q0 -344 -272 -444l362 -512h-393l-317 457h-221v-457h-320zM496 733h233q164 0 223.5 53.5t59.5 169t-61.5 158.5t-215.5 43h-239v-424z" />
<glyph unicode="S" horiz-adv-x="1306" d="M74 236l190 233q231 -203 428 -203q88 0 138.5 38t50.5 102.5t-53.5 102.5t-211.5 77q-250 59 -365.5 154.5t-115.5 299t146.5 314t365.5 110.5q143 0 286.5 -49t250.5 -139l-162 -234q-186 141 -385 142q-80 0 -126 -38t-46 -100.5t56.5 -99.5t260 -87t316 -150.5 t112.5 -293t-144 -312t-380 -119.5q-340 0 -612 252z" />
<glyph unicode="T" horiz-adv-x="1245" d="M57 1155v277h1131v-277h-406v-1155h-319v1155h-406z" />
<glyph unicode="U" horiz-adv-x="1538" d="M156 631v801h319v-791q0 -172 80 -271.5t215 -99.5t214 99.5t79 271.5v791h319v-801q0 -311 -172 -478t-440 -167t-441 168t-173 477z" />
<glyph unicode="V" horiz-adv-x="1409" d="M-6 1432h346l365 -912l364 912h346l-575 -1432h-271z" />
<glyph unicode="W" horiz-adv-x="2086" d="M-6 1432h346l283 -824l254 824h333l252 -824l285 824h346l-500 -1432h-237l-314 995l-311 -995h-237z" />
<glyph unicode="X" horiz-adv-x="1423" d="M20 0l482 733l-449 699h383l273 -424l272 424h385l-446 -691l483 -741h-389l-305 471l-303 -471h-386z" />
<glyph unicode="Y" horiz-adv-x="1265" d="M-23 1432h347l309 -533l309 533h346l-495 -867v-565h-320v565z" />
<glyph unicode="Z" horiz-adv-x="1394" d="M94 0v219l750 936h-725v277h1161v-222l-748 -931h760v-279h-1198z" />
<glyph unicode="[" horiz-adv-x="765" d="M158 -274v1824h526v-231h-264v-1362h264v-231h-526z" />
<glyph unicode="\" horiz-adv-x="1171" d="M57 1550h310l745 -1550h-309z" />
<glyph unicode="]" horiz-adv-x="765" d="M82 -43h264v1362h-264v231h526v-1824h-526v231z" />
<glyph unicode="^" horiz-adv-x="989" d="M45 1579l281 363h338l280 -363h-293l-157 174l-156 -174h-293z" />
<glyph unicode="_" horiz-adv-x="1474" d="M137 -92h1200v-178h-1200v178z" />
<glyph unicode="`" horiz-adv-x="782" d="M102 1804l316 135l262 -364h-293z" />
<glyph unicode="a" horiz-adv-x="1216" d="M86 355q0 169 123 253t336 84h229v6q0 176 -186 176q-80 0 -169 -31.5t-151 -78.5l-137 199q216 157 492 157h4q201 0 327.5 -100t126.5 -318v-702h-288v133q-119 -150 -293 -150l-1 1q-175 0 -294 101t-119 270zM395 358q0 -59 44 -90.5t126 -31.5t144.5 50t62.5 134v53 h-192q-184 0 -185 -115z" />
<glyph unicode="b" horiz-adv-x="1363" d="M145 0v1520h308v-541q127 141 327.5 141t350 -156.5t149.5 -402.5t-153.5 -411.5t-349 -165.5t-324.5 161v-145h-308zM449 550q0 -134 74.5 -219t181 -85t186.5 85t80 218t-78 223t-186.5 90t-183 -89t-74.5 -223z" />
<glyph unicode="c" horiz-adv-x="1191" d="M82 550q0 253 173 411.5t411 158.5q119 0 240.5 -49t213.5 -145l-159 -209q-53 63 -130 98t-153 35q-121 0 -208 -79t-87 -219t87 -218t204 -78q154 0 276 154l183 -205q-213 -221 -461 -221t-419 156.5t-171 409.5z" />
<glyph unicode="d" horiz-adv-x="1363" d="M84 561q0 246 149.5 402.5t350 156.5t327.5 -141v541h308v-1520h-308v145q-129 -162 -323 -162l-2 1q-196 0 -349 165.5t-153 411.5zM393 549q0 -133 80 -218t186.5 -85t181 85t74.5 219t-74.5 223t-183 89t-186.5 -90t-78 -223z" />
<glyph unicode="e" horiz-adv-x="1265" d="M84 553q0 260 167 413.5t394 153.5t386 -137t159 -377v-164h-803q14 -90 94 -147t181 -57q162 0 266 108l172 -186q-186 -176 -437 -176t-415 154.5t-164 414.5zM395 662h484q-11 98 -74.5 151t-154.5 53t-166.5 -55t-88.5 -149z" />
<glyph unicode="f" horiz-adv-x="823" d="M74 870v222h129v67q0 180 109.5 285.5t272.5 105.5t296 -123l-111 -206q-67 77 -147 77h-2q-47 0 -78 -33.5t-31 -99.5v-73h266v-222h-266v-870h-309v870h-129z" />
<glyph unicode="g" horiz-adv-x="1366" d="M86 562q0 245 152.5 401.5t349 156.5t325.5 -162v146h308v-961q0 -147 -51.5 -261.5t-137.5 -180.5q-170 -135 -401 -135q-123 0 -251 40t-224 113l118 232q152 -115 321 -115t267.5 84t98.5 266q-145 -162 -360 -162h-1q-217 1 -365.5 147t-148.5 391zM395 575.5 q0 -131.5 77 -212t187.5 -80.5t184.5 79.5t74 212t-74 208t-182.5 75.5t-187.5 -75.5t-79 -207z" />
<glyph unicode="h" horiz-adv-x="1308" d="M145 0v1520h308v-541q139 141 312 141t292 -123t119 -327v-670h-308v602q0 254 -186 254q-92 0 -160.5 -66.5t-68.5 -195.5v-594h-308z" />
<glyph unicode="i" horiz-adv-x="598" d="M119 1370q0 76 52 128t128 52t128 -52t52 -128t-52 -128t-128 -52t-128 52t-52 128zM145 0v1102h308v-1102h-308z" />
<glyph unicode="j" horiz-adv-x="702" d="M-123 -303l141 227q60 -71 136 -71h2q41 0 67.5 32t26.5 95v1124h307v-1149q0 -180 -109.5 -284.5t-268.5 -104.5t-302 131zM223 1370q0 76 52.5 128t128 52t128 -52t52.5 -128t-52.5 -128t-128 -52t-128 52t-52.5 128z" />
<glyph unicode="k" horiz-adv-x="1218" d="M145 0v1520h308v-781l342 365h387l-420 -447l436 -657h-364l-281 422l-100 -105v-317h-308z" />
<glyph unicode="l" horiz-adv-x="598" d="M145 0v1520h308v-1520h-308z" />
<glyph unicode="m" horiz-adv-x="2013" d="M145 0v1102h308v-125q127 143 290 143q104 0 189.5 -61.5t128.5 -149.5q63 100 170.5 155.5t216.5 55.5q195 0 313.5 -115.5t118.5 -334.5v-670h-309v602q0 254 -187 254q-92 0 -159.5 -66.5t-67.5 -195.5v-594h-309v602q0 131 -40 192.5t-129 61.5t-157.5 -66.5 t-68.5 -195.5v-594h-308z" />
<glyph unicode="n" horiz-adv-x="1308" d="M145 0v1102h308v-123q139 141 313 141t292 -123t118 -327v-670h-308v623q0 254 -186 254q-92 0 -160.5 -67t-68.5 -196v-614h-308z" />
<glyph unicode="o" horiz-adv-x="1329" d="M82 551q0 240 166 404.5t416.5 164.5t416.5 -164.5t166 -404.5t-166 -403.5t-416.5 -163.5t-416.5 163.5t-166 403.5zM391 551q0 -135 77 -220t196.5 -85t196.5 85t77 220t-77 221t-196.5 86t-196.5 -86t-77 -221z" />
<glyph unicode="p" horiz-adv-x="1363" d="M145 -397v1499h308v-123q141 141 333.5 141t343 -160.5t150.5 -404.5t-150.5 -407.5t-352.5 -163.5t-324 161v-542h-308zM449 550q0 -134 74.5 -219t181 -85t186.5 85t80 218t-78 223t-186.5 90t-183 -89t-74.5 -223z" />
<glyph unicode="q" horiz-adv-x="1363" d="M84 550q0 249 153.5 409.5t342 160.5t329.5 -141v123h310v-1499h-310v485q-131 -104 -299 -104q-211 0 -368.5 158.5t-157.5 407.5zM393 550q0 -134 80 -219t186.5 -85t180 85t73.5 219t-73.5 223t-182 89t-186.5 -89t-78 -223z" />
<glyph unicode="r" horiz-adv-x="841" d="M145 0v1102h308v-146q59 68 148 115t181 49l2 -289h-59q-137 0 -204.5 -97t-67.5 -257v-477h-308z" />
<glyph unicode="s" horiz-adv-x="1064" d="M55 158l135 192q172 -133 367 -133q59 0 94 23.5t35 62.5t-48 72t-139 61.5t-139.5 49t-109.5 59.5q-125 78 -125 230.5t123 248.5t317.5 96t388.5 -131l-114 -205q-144 98 -286 98q-1 0 -1 1q-141 0 -141 -78q0 -43 45 -67.5t149.5 -57.5t148.5 -50.5t105 -54.5 q115 -70 115 -232.5t-120 -260.5t-304 -98q-123 0 -256 44t-240 130z" />
<glyph unicode="t" horiz-adv-x="901" d="M74 881v221h129v330h309v-330h266v-221h-266v-494q0 -63 33 -99t78 -36q86 0 145 78l115 -215q-143 -131 -302 -131t-268.5 104.5t-109.5 284.5v508h-129z" />
<glyph unicode="u" horiz-adv-x="1310" d="M133 434v668h309v-600q0 -254 187 -254q92 0 159.5 66.5t67.5 193.5v594h309v-1102h-309v145q-115 -162 -295 -162l-1 1q-181 0 -304 113.5t-123 336.5z" />
<glyph unicode="v" horiz-adv-x="1200" d="M6 1104h320l274 -694l274 694h320l-436 -1104h-316z" />
<glyph unicode="w" horiz-adv-x="1847" d="M27 1102h317l215 -666l215 666h297l215 -666l215 666h320l-375 -1102h-320l-202 600l-205 -600h-318z" />
<glyph unicode="x" horiz-adv-x="1198" d="M27 0l385 561l-365 541h367l188 -295l195 295h360l-379 -539l393 -563h-366l-215 303l-209 -303h-354z" />
<glyph unicode="y" horiz-adv-x="1208" d="M8 1102h328l268 -686l268 686h328l-512 -1299q-45 -113 -140 -175t-212 -62q-162 0 -305 131l139 227q78 -76 160 -76q43 0 73.5 42t30.5 89.5t-426 1122.5z" />
<glyph unicode="z" horiz-adv-x="1132" d="M86 0v254l520 594h-481v254h889v-240l-535 -606h565v-256h-958z" />
<glyph unicode="{" horiz-adv-x="737" d="M76 510v250h94q47 0 47 86v411q0 293 307 293h113v-250l-43 3q-90 0 -90 -80v-428q0 -109 -76 -160q76 -49 76 -158v-446q0 -68 133 -68v-250h-113q-307 0 -307 293v420q0 84 -47 84h-94z" />
<glyph unicode="|" horiz-adv-x="565" d="M156 -299v1890h254v-1890h-254z" />
<glyph unicode="}" horiz-adv-x="737" d="M100 -37l43 -2q90 0 90 80v428q0 109 76 160q-76 49 -76 157v447q0 68 -133 67v250h113q307 0 307 -293v-419q0 -84 47 -84h95v-250h-95q-47 0 -47 -86v-412q0 -293 -307 -293h-113v250z" />
<glyph unicode="~" horiz-adv-x="1095" d="M51 649q14 164 96 247t211 83q74 0 201 -65.5t172 -65.5q68 0 68 88q0 20 -6 45l245 -66q-12 -170 -90 -246.5t-194 -76.5q-70 0 -200 66.5t-169 66.5t-65.5 -39t-24.5 -111z" />
<glyph unicode="&#xa1;" horiz-adv-x="651" d="M145 0v270l60 738h241l62 -738v-270h-363zM145 1284q0 76 52.5 128t128 52t128 -52t52.5 -128t-52.5 -128t-128 -52t-128 52t-52.5 128z" />
<glyph unicode="&#xa2;" horiz-adv-x="1224" d="M94 549q0 225 137.5 376.5t341.5 184.5v236h197v-234q209 -31 363 -186l-160 -209q-84 96 -203 123v-572q53 16 101.5 51t70.5 62l21 29l182 -205q-170 -178 -375 -211v-234h-197v232q-203 33 -341 182.5t-138 374.5zM395 552q0 -103 49.5 -175t128.5 -101v551 q-79 -30 -128.5 -101t-49.5 -174z" />
<glyph unicode="&#xa3;" horiz-adv-x="1286" d="M119 559v258h164v211q0 254 130 369.5t341 115.5q283 0 430 -258l-228 -184q-33 76 -84 119t-112.5 43t-108.5 -46.5t-47 -146.5v-223h320v-258h-320v-287h570v-272h-1047v272h156v287h-164z" />
<glyph unicode="&#xa5;" horiz-adv-x="1517" d="M70 1430h348l338 -584l350 584h346l-397 -662h225v-197h-360v-112h360v-197h-360v-262h-334v262h-365v197h365v112h-365v197h234z" />
<glyph unicode="&#xa7;" horiz-adv-x="1273" d="M102 643q0 86 50.5 163t144.5 118q-111 78 -111 211q0 168 125 273t320 105q135 0 241.5 -37.5t223.5 -123.5l-154 -219q-172 131 -315 131q-66 0 -104 -31t-38 -83t48.5 -84t191.5 -69q246 -59 352.5 -142t106.5 -239q0 -207 -209 -292q131 -88 131 -236.5t-125 -253 t-334 -104.5q-293 0 -538 223l172 207q215 -180 372.5 -180t157.5 98q0 49 -57.5 84t-240.5 88t-297 140t-114 253zM375 651q0 -78 99 -128t253 -50q78 0 131 34t53 89q0 84 -121.5 125t-220.5 41q-194 0 -194 -111z" />
<glyph unicode="&#xa8;" horiz-adv-x="1087" d="M195 1415.5q0 63.5 44 107.5t107.5 44t107.5 -44t44 -107.5t-44 -107.5t-107.5 -44t-107.5 44t-44 107.5zM590 1415.5q0 63.5 44 107.5t107.5 44t107.5 -44t44 -107.5t-44 -107.5t-107.5 -44t-107.5 44t-44 107.5z" />
<glyph unicode="&#xa9;" horiz-adv-x="1687" d="M104 713q0 305 216.5 524t523.5 219t523 -217t216 -522t-216 -523.5t-525.5 -218.5t-523.5 216.5t-214 521.5zM256 712.5q0 -241.5 170 -413.5t415.5 -172t418 174t172.5 415.5t-172.5 414t-415 172.5t-415.5 -174.5t-173 -416zM430 720.5q0 188.5 129 306.5t317.5 118 t327.5 -146l-123 -153q-82 98 -207 98q-88 0 -150 -58.5t-62 -161.5t64.5 -163.5t154.5 -60.5q133 0 204 118l127 -153q-157 -166 -360 -166q-172 0 -297 116.5t-125 305z" />
<glyph unicode="&#xaa;" horiz-adv-x="733" d="M104 1104q0 78 60.5 118t163.5 40h104v6q0 88 -78 88q-61 0 -127 -29l-20 -10l-49 90q88 57 198 57q236 0 236 -194v-332h-152v63q-45 -70 -133 -69.5t-145.5 47.5t-57.5 125zM266 1104q0 -29 18.5 -45.5t54.5 -16.5t63.5 25t27.5 68v30h-90q-74 0 -74 -61z" />
<glyph unicode="&#xab;" horiz-adv-x="1236" d="M98 502l250 377h309l-241 -377l241 -379h-309zM559 502l250 377h309l-241 -377l241 -379h-309z" />
<glyph unicode="&#xac;" horiz-adv-x="1673" d="M129 670v241h1370v-731h-229v490h-1141z" />
<glyph unicode="&#xad;" horiz-adv-x="1003" d="M137 479v273h729v-273h-729z" />
<glyph unicode="&#xae;" horiz-adv-x="1687" d="M104 713q0 305 216.5 524t523.5 219t523 -217t216 -522t-216 -523.5t-525.5 -218.5t-523.5 216.5t-214 521.5zM256 712.5q0 -241.5 170 -413.5t418 -172t420 178h-238l-178 256h-90v-256h-226v832h330q197 0 281 -68t84 -217q0 -182 -166 -254l207 -289 q164 170 164 409.5t-172.5 412t-415 172.5t-415.5 -174.5t-173 -416zM758 745h108q80 0 109 26t29 82t-30 77.5t-104 21.5h-112v-207z" />
<glyph unicode="&#xb0;" horiz-adv-x="876" d="M96 1127.5q0 138.5 100.5 236.5t242 98t241.5 -98t100 -236.5t-100 -235.5t-241.5 -97t-242 97t-100.5 235.5zM291 1127.5q0 -68.5 43 -116.5t104.5 -48t103.5 47t42 116.5t-42 116.5t-103.5 47t-104.5 -47t-43 -115.5z" />
<glyph unicode="&#xb1;" horiz-adv-x="1189" d="M98 182v232h994v-232h-994zM98 801v239h355v295h282v-295h357v-239h-357v-285h-282v285h-355z" />
<glyph unicode="&#xb4;" horiz-adv-x="782" d="M102 1579l260 363l318 -134l-285 -229h-293z" />
<glyph unicode="&#xb5;" horiz-adv-x="1325" d="M162 -379v1481h309v-600q0 -254 186 -254q92 0 160 66.5t68 193.5v594h309v-1102h-309v92q-121 -109 -291 -108q-72 0 -123 14v-377h-309z" />
<glyph unicode="&#xb6;" horiz-adv-x="1458" d="M70 1122q0 180 123.5 303t377.5 123h701v-1763h-273v1509h-200v-1509h-267v928h-40q-266 0 -369 196q-53 100 -53 213z" />
<glyph unicode="&#xb7;" horiz-adv-x="610" d="M125 651q0 76 52 128t128 52t128 -52t52 -128t-52 -128t-128 -52t-128 52t-52 128z" />
<glyph unicode="&#xb8;" horiz-adv-x="575" d="M29 -414l77 176q45 -39 80 -38.5t54.5 18.5t19.5 46t-24.5 49.5t-58.5 21.5t-73 -19l84 160h236l-57 -104q133 -45 133 -156q0 -88 -73 -153.5t-183.5 -65.5t-214.5 65z" />
<glyph unicode="&#xba;" horiz-adv-x="804" d="M100 1176.5q0 119.5 86 203.5t216 84t216.5 -84t86.5 -204.5t-86.5 -203.5t-216.5 -83t-216 84t-86 203.5zM297 1176.5q0 -56.5 29.5 -91t76 -34.5t76 34.5t29.5 91t-29.5 92.5t-76 36t-76 -36t-29.5 -92.5z" />
<glyph unicode="&#xbb;" horiz-adv-x="1236" d="M119 123l241 379l-241 377h309l250 -377l-250 -379h-309zM580 123l241 379l-241 377h309l250 -377l-250 -379h-309z" />
<glyph unicode="&#xbf;" horiz-adv-x="1077" d="M106 377q0 82 20.5 122t29 57t38 52t39.5 43q49 51 93.5 94t58.5 71t14 83v123h312v-154q0 -84 -21.5 -126t-91.5 -113l-139 -144q-31 -37 -31 -95t33 -97t86 -39t89 46t44 122h326q-23 -205 -150 -321.5t-318.5 -116.5t-311.5 104.5t-120 288.5zM371 1284q0 76 52 128 t128 52t128 -52t52 -128t-52 -128t-128 -52t-128 52t-52 128z" />
<glyph unicode="&#xc0;" d="M-10 0l618 1432h310l618 -1432h-340l-133 309h-600l-133 -309h-340zM340 1804l315 135l263 -364h-293zM584 590h358l-178 416z" />
<glyph unicode="&#xc1;" d="M-10 0l618 1432h310l618 -1432h-340l-133 309h-600l-133 -309h-340zM584 590h358l-178 416zM606 1579l260 363l318 -134l-285 -229h-293z" />
<glyph unicode="&#xc2;" d="M-10 0l618 1432h310l618 -1432h-340l-133 309h-600l-133 -309h-340zM328 1575l231 323h383l232 -323h-252l-172 166l-170 -166h-252zM584 590h358l-178 416z" />
<glyph unicode="&#xc3;" d="M-10 0l618 1432h310l618 -1432h-340l-133 309h-600l-133 -309h-340zM354 1575q0 154 66.5 242t171.5 88q66 0 159 -56.5t113 -56.5q63 0 62 106h217q0 -154 -66.5 -241.5t-171.5 -87.5q-63 0 -159.5 56t-112.5 56q-63 0 -62 -106h-217zM584 590h358l-178 416z" />
<glyph unicode="&#xc4;" d="M-10 0l618 1432h310l618 -1432h-340l-133 309h-600l-133 -309h-340zM420 1734.5q0 63.5 44 107.5t107.5 44t107.5 -44t44 -107.5t-44 -107.5t-107.5 -44t-107.5 44t-44 107.5zM584 590h358l-178 416zM815 1734.5q0 63.5 44 107.5t107.5 44t107.5 -44t44 -107.5 t-44 -107.5t-107.5 -44t-107.5 44t-44 107.5z" />
<glyph unicode="&#xc5;" d="M-10 0l616 1430q-61 66 -61 154.5t64.5 153t154.5 64.5t154.5 -64.5t64.5 -154.5t-65 -156l618 -1427h-340l-133 309h-600l-133 -309h-340zM584 590h358l-178 416zM692 1583q0 -29 21.5 -50.5t50.5 -21.5t50.5 21.5t21.5 50.5t-21.5 50.5t-50.5 21.5t-50.5 -21.5 t-21.5 -50.5z" />
<glyph unicode="&#xc6;" horiz-adv-x="2095" d="M-33 0l735 1432h1264v-281h-715v-309h641v-269h-641v-292h738v-281h-1078v309h-405l-162 -309h-377zM651 598h260v504z" />
<glyph unicode="&#xc7;" horiz-adv-x="1499" d="M90 739q0 299 218 512t534 213q352 0 590 -268l-199 -225q-152 188 -377 188q-180 0 -308 -117.5t-128 -317.5t121 -320.5t293 -120.5q236 0 385 186l204 -211q-207 -233 -495 -268l-54 -99q133 -45 134 -155q0 -88 -73 -153.5t-183.5 -65.5t-214.5 65l77 176 q45 -39 80 -39t54.5 18.5t19.5 46.5t-24.5 49.5t-58.5 21.5t-73 -19l84 160q-266 45 -436 244.5t-170 498.5z" />
<glyph unicode="&#xc8;" horiz-adv-x="1339" d="M176 0v1432h1032v-285h-712v-295h641v-272h-641v-297h735v-283h-1055zM250 1804l315 135l262 -364h-292z" />
<glyph unicode="&#xc9;" horiz-adv-x="1339" d="M176 0v1432h1032v-285h-712v-295h641v-272h-641v-297h735v-283h-1055zM516 1579l260 363l318 -134l-285 -229h-293z" />
<glyph unicode="&#xca;" horiz-adv-x="1339" d="M176 0v1432h1032v-285h-712v-295h641v-272h-641v-297h735v-283h-1055zM238 1575l231 323h383l231 -323h-252l-172 166l-170 -166h-251z" />
<glyph unicode="&#xcb;" horiz-adv-x="1339" d="M176 0v1432h1032v-285h-712v-295h641v-272h-641v-297h735v-283h-1055zM348 1734.5q0 63.5 44 107.5t107.5 44t107.5 -44t44 -107.5t-44 -107.5t-107.5 -44t-107.5 44t-44 107.5zM743 1734.5q0 63.5 44 107.5t107.5 44t108 -44t44.5 -107.5t-44.5 -107.5t-108 -44 t-107.5 44t-44 107.5z" />
<glyph unicode="&#xcc;" horiz-adv-x="671" d="M-76 1804l316 135l262 -364h-293zM176 0v1432h320v-1432h-320z" />
<glyph unicode="&#xcd;" horiz-adv-x="671" d="M176 0v1432h320v-1432h-320zM190 1579l261 363l317 -134l-285 -229h-293z" />
<glyph unicode="&#xce;" horiz-adv-x="671" d="M-86 1577l231 324h383l232 -324h-252l-172 166l-170 -166h-252zM176 0v1432h320v-1432h-320z" />
<glyph unicode="&#xcf;" horiz-adv-x="671" d="M-14 1734.5q0 63.5 44 107.5t107.5 44t107.5 -44t44 -107.5t-44 -107.5t-107.5 -44t-107.5 44t-44 107.5zM176 0v1432h320v-1432h-320zM381 1734.5q0 63.5 44 107.5t107.5 44t107.5 -44t44 -107.5t-44 -107.5t-107.5 -44t-107.5 44t-44 107.5z" />
<glyph unicode="&#xd0;" horiz-adv-x="1605" d="M53 573v273h152v586h506q383 0 587.5 -187.5t204.5 -521.5t-199.5 -528.5t-609.5 -194.5h-489v573h-152zM524 283h203q219 0 337 110.5t118 321.5t-118 324.5t-362 113.5h-178v-307h480v-273h-480v-290z" />
<glyph unicode="&#xd1;" horiz-adv-x="1673" d="M176 0v1432h299l703 -922v922h319v-1432h-319l-682 897v-897h-320zM438 1573q0 154 66.5 242t171.5 88q66 0 159 -56.5t113 -56.5q63 0 62 106h217q0 -154 -66.5 -241.5t-171.5 -87.5q-63 0 -159.5 56t-112.5 56q-63 0 -62 -106h-217z" />
<glyph unicode="&#xd2;" horiz-adv-x="1691" d="M94 725q0 315 217 527t534.5 212t534.5 -212t217 -527t-217 -527t-534.5 -212t-534.5 212t-217 527zM422 723.5q0 -191.5 123 -325.5t302 -134t302 134t123 325.5t-123 327t-302 135.5t-302 -135.5t-123 -327zM434 1804l316 135l262 -364h-293z" />
<glyph unicode="&#xd3;" horiz-adv-x="1691" d="M94 725q0 315 217 527t534.5 212t534.5 -212t217 -527t-217 -527t-534.5 -212t-534.5 212t-217 527zM422 723.5q0 -191.5 123 -325.5t302 -134t302 134t123 325.5t-123 327t-302 135.5t-302 -135.5t-123 -327zM700 1579l261 363l317 -134l-285 -229h-293z" />
<glyph unicode="&#xd4;" horiz-adv-x="1691" d="M94 725q0 315 217 527t534.5 212t534.5 -212t217 -527t-217 -527t-534.5 -212t-534.5 212t-217 527zM422 723.5q0 -191.5 123 -325.5t302 -134t302 134t123 325.5t-123 327t-302 135.5t-302 -135.5t-123 -327zM422 1575l231 323h383l232 -323h-252l-172 166l-170 -166 h-252z" />
<glyph unicode="&#xd5;" horiz-adv-x="1691" d="M94 725q0 315 217 527t534.5 212t534.5 -212t217 -527t-217 -527t-534.5 -212t-534.5 212t-217 527zM422 723.5q0 -191.5 123 -325.5t302 -134t302 134t123 325.5t-123 327t-302 135.5t-302 -135.5t-123 -327zM449 1573q0 154 66.5 242t170.5 88q66 0 159 -56.5 t113 -56.5q63 0 62 106h217q0 -154 -66.5 -241.5t-171.5 -87.5q-63 0 -159.5 56t-112.5 56q-63 0 -61 -106h-217z" />
<glyph unicode="&#xd6;" horiz-adv-x="1691" d="M94 725q0 315 217 527t534.5 212t534.5 -212t217 -527t-217 -527t-534.5 -212t-534.5 212t-217 527zM422 723.5q0 -191.5 123 -325.5t302 -134t302 134t123 325.5t-123 327t-302 135.5t-302 -135.5t-123 -327zM494 1734.5q0 63.5 44 107.5t107.5 44t107.5 -44t44 -107.5 t-44 -107.5t-107.5 -44t-107.5 44t-44 107.5zM889 1734.5q0 63.5 44 107.5t107.5 44t107.5 -44t44 -107.5t-44 -107.5t-107.5 -44t-107.5 44t-44 107.5z" />
<glyph unicode="&#xd8;" horiz-adv-x="1691" d="M94 725q0 315 217 527t535 212q98 0 205 -26l96 211h291l-148 -322q143 -100 225 -258t82 -344q0 -315 -217 -527t-534 -212q-80 0 -162 16l-106 -231h-289l149 327q-160 98 -252 263t-92 364zM422 712.5q0 -202.5 143 -335.5l367 799q-47 10 -86 10q-178 0 -301 -135.5 t-123 -338zM805 266q12 -2 41 -2q180 0 303 134t123 320.5t-115 321.5z" />
<glyph unicode="&#xd9;" horiz-adv-x="1538" d="M156 631v801h319v-791q0 -172 80 -271.5t215 -99.5t214 99.5t79 271.5v791h319v-801q0 -311 -172 -478t-440 -167t-441 168t-173 477zM354 1804l316 135l262 -364h-293z" />
<glyph unicode="&#xda;" horiz-adv-x="1538" d="M156 631v801h319v-791q0 -172 80 -271.5t215 -99.5t214 99.5t79 271.5v791h319v-801q0 -311 -172 -478t-440 -167t-441 168t-173 477zM623 1579l260 363l317 -134l-285 -229h-292z" />
<glyph unicode="&#xdb;" horiz-adv-x="1538" d="M156 631v801h319v-791q0 -172 80 -271.5t215 -99.5t214 99.5t79 271.5v791h319v-801q0 -311 -172 -478t-440 -167t-441 168t-173 477zM344 1575l231 323h383l232 -323h-252l-172 166l-170 -166h-252z" />
<glyph unicode="&#xdc;" horiz-adv-x="1538" d="M156 631v801h319v-791q0 -172 80 -271.5t215 -99.5t214 99.5t79 271.5v791h319v-801q0 -311 -172 -478t-440 -167t-441 168t-173 477zM418 1734.5q0 63.5 44 107.5t107.5 44t107.5 -44t44 -107.5t-44 -107.5t-107.5 -44t-107.5 44t-44 107.5zM813 1734.5q0 63.5 44 107.5 t107.5 44t107.5 -44t44 -107.5t-44 -107.5t-107.5 -44t-107.5 44t-44 107.5z" />
<glyph unicode="&#xdd;" horiz-adv-x="1265" d="M-23 1432h347l309 -533l309 533h346l-495 -867v-565h-320v565zM446 1579l261 363l317 -134l-285 -229h-293z" />
<glyph unicode="&#xde;" horiz-adv-x="1402" d="M176 0v1432h320v-172h166q651 0 651 -506q0 -279 -163 -403t-484 -124h-170v-227h-320zM496 504h194q164 0 229.5 66.5t65.5 188.5t-82 173t-246 51h-161v-479z" />
<glyph unicode="&#xdf;" horiz-adv-x="1325" d="M143 0v922q0 201 41 315q16 51 55.5 114.5t92.5 102.5q123 96 325 96q117 0 208 -29.5t144.5 -73.5t88.5 -104q57 -104 57 -223q0 -190 -158 -319q121 -39 181.5 -140.5t60.5 -226.5q0 -199 -138 -316.5t-396 -117.5h-127v258h90q252 0 252 176q0 195 -236 195 q-43 0 -113 -6v247q138 21 204.5 83.5t66.5 139t-39 131t-123 54.5q-119 0 -168 -84t-49 -246v-948h-320z" />
<glyph unicode="&#xe0;" horiz-adv-x="1216" d="M86 355q0 169 123 253t336 84h229v6q0 176 -186 176q-80 0 -169 -31.5t-151 -78.5l-137 199q217 158 496 157q201 0 327.5 -100t126.5 -318v-702h-288v133q-119 -150 -294 -149.5t-294 101.5t-119 270zM266 1481l316 135l262 -365h-293zM395 358q0 -59 44 -90.5 t126 -31.5t144.5 50t62.5 134v53h-192q-184 0 -185 -115z" />
<glyph unicode="&#xe1;" horiz-adv-x="1216" d="M86 355q0 169 123 253t336 84h229v6q0 176 -186 176q-80 0 -169 -31.5t-151 -78.5l-137 199q217 158 496 157q201 0 327.5 -100t126.5 -318v-702h-288v133q-119 -150 -294 -149.5t-294 101.5t-119 270zM395 358q0 -59 44 -90.5t126 -31.5t144.5 50t62.5 134v53h-192 q-184 0 -185 -115zM420 1251l260 363l317 -133l-284 -230h-293z" />
<glyph unicode="&#xe2;" horiz-adv-x="1216" d="M86 355q0 169 123 253t336 84h229v6q0 176 -186 176q-80 0 -169 -31.5t-151 -78.5l-137 199q217 158 496 157q201 0 327.5 -100t126.5 -318v-702h-288v133q-119 -150 -294 -149.5t-294 101.5t-119 270zM193 1251l231 324h383l231 -324h-252l-172 166l-170 -166h-251z M395 358q0 -59 44 -90.5t126 -31.5t144.5 50t62.5 134v53h-192q-184 0 -185 -115z" />
<glyph unicode="&#xe3;" horiz-adv-x="1216" d="M86 355q0 169 123 253t336 84h229v6q0 176 -186 176q-80 0 -169 -31.5t-151 -78.5l-137 199q217 158 496 157q201 0 327.5 -100t126.5 -318v-702h-288v133q-119 -150 -294 -149.5t-294 101.5t-119 270zM199 1251q0 154 66.5 242t170.5 88q66 0 159 -56.5t114 -56.5 q63 0 61 107h217q0 -154 -66.5 -242t-170.5 -88q-63 0 -160 56.5t-113 56.5q-63 0 -61 -107h-217zM395 358q0 -59 44 -90.5t126 -31.5t144.5 50t62.5 134v53h-192q-184 0 -185 -115z" />
<glyph unicode="&#xe4;" horiz-adv-x="1216" d="M86 355q0 169 123 253t336 84h229v6q0 176 -186 176q-80 0 -169 -31.5t-151 -78.5l-137 199q217 158 496 157q201 0 327.5 -100t126.5 -318v-702h-288v133q-119 -150 -294 -149.5t-294 101.5t-119 270zM266 1415.5q0 63.5 44 107.5t107.5 44t107.5 -44t44 -107.5 t-44 -107.5t-107.5 -44t-107.5 44t-44 107.5zM395 358q0 -59 44 -90.5t126 -31.5t144.5 50t62.5 134v53h-192q-184 0 -185 -115zM662 1415.5q0 63.5 44 107.5t107.5 44t107.5 -44t44 -107.5t-44 -107.5t-107.5 -44t-107.5 44t-44 107.5z" />
<glyph unicode="&#xe5;" horiz-adv-x="1216" d="M86 355q0 169 123 253t336 84h229v6q0 176 -186 176q-80 0 -169 -31.5t-151 -78.5l-137 199q217 158 496 157q201 0 327.5 -100t126.5 -318v-702h-288v133q-119 -150 -294 -149.5t-294 101.5t-119 270zM395 358q0 -59 44 -90.5t126 -31.5t144.5 50t62.5 134v53h-192 q-184 0 -185 -115zM408 1440q0 90 64.5 154.5t154.5 64.5t154.5 -64.5t64.5 -154.5t-64.5 -154.5t-154.5 -64.5t-154.5 64.5t-64.5 154.5zM555 1439.5q0 -28.5 21.5 -50t50 -21.5t50 21.5t21.5 50t-21.5 50t-50 21.5t-50 -21.5t-21.5 -50z" />
<glyph unicode="&#xe6;" horiz-adv-x="1916" d="M82 350q0 334 459 334h229v14q0 172 -178 172q-127 0 -307 -127l-138 199q221 178 460 178t360 -114q143 115 355 114.5t361.5 -136.5t149.5 -378v-157h-756v-11q16 -92 86 -146t160 -54q145 0 270 153l181 -201q-197 -207 -467 -206q-236 0 -387 155 q-158 -156 -404 -155q-180 0 -307 102t-127 264zM391 357.5q0 -58.5 44 -90t126 -31.5t144.5 50t62.5 134v29h-193q-90 0 -137 -16.5t-47 -75zM1081 684h439q-15 88 -70 135t-136 47t-147.5 -49t-85.5 -133z" />
<glyph unicode="&#xe7;" horiz-adv-x="1193" d="M84 549q0 254 173 412.5t411 158.5q119 0 240.5 -49t213.5 -145l-159 -209q-53 63 -130 98t-153 35q-121 0 -208 -79t-87 -219t87 -218t204 -78q154 0 276 154l183 -205q-166 -172 -365 -211l-55 -103q133 -45 133 -155q0 -88 -73 -153.5t-183.5 -65.5t-214.5 65l78 176 q45 -39 79.5 -39t54 18.5t19.5 46.5t-24.5 49.5t-58 21.5t-72.5 -19l84 160q-195 41 -324 188.5t-129 364.5z" />
<glyph unicode="&#xe8;" horiz-adv-x="1265" d="M84 553q0 260 167 413.5t394 153.5t386 -137t159 -377v-164h-803q14 -90 94 -147t181 -57q162 0 266 108l172 -186q-186 -176 -437 -176t-415 154.5t-164 414.5zM252 1481l315 135l262 -365h-292zM395 662h484q-11 98 -74.5 151t-154.5 53t-166.5 -55t-88.5 -149z" />
<glyph unicode="&#xe9;" horiz-adv-x="1265" d="M84 553q0 260 167 413.5t394 153.5t386 -137t159 -377v-164h-803q14 -90 94 -147t181 -57q162 0 266 108l172 -186q-186 -176 -437 -176t-415 154.5t-164 414.5zM395 662h484q-11 98 -74.5 151t-154.5 53t-166.5 -55t-88.5 -149zM446 1251l261 363l317 -133l-285 -230 h-293z" />
<glyph unicode="&#xea;" horiz-adv-x="1265" d="M84 553q0 260 167 413.5t394 153.5t386 -137t159 -377v-164h-803q14 -90 94 -147t181 -57q162 0 266 108l172 -186q-186 -176 -437 -176t-415 154.5t-164 414.5zM209 1251l231 324h383l232 -324h-252l-172 166l-170 -166h-252zM395 662h484q-11 98 -74.5 151t-154.5 53 t-166.5 -55t-88.5 -149z" />
<glyph unicode="&#xeb;" horiz-adv-x="1265" d="M84 553q0 260 167 413.5t394 153.5t386 -137t159 -377v-164h-803q14 -90 94 -147t181 -57q162 0 266 108l172 -186q-186 -176 -437 -176t-415 154.5t-164 414.5zM297 1415.5q0 63.5 44 107.5t107.5 44t107.5 -44t44 -107.5t-44 -107.5t-107.5 -44t-107.5 44t-44 107.5z M395 662h484q-11 98 -74.5 151t-154.5 53t-166.5 -55t-88.5 -149zM692 1415.5q0 63.5 44 107.5t107.5 44t107.5 -44t44 -107.5t-44 -107.5t-107.5 -44t-107.5 44t-44 107.5z" />
<glyph unicode="&#xec;" horiz-adv-x="598" d="M-121 1481l316 135l262 -365h-293zM145 0v1102h308v-1102h-308z" />
<glyph unicode="&#xed;" horiz-adv-x="598" d="M145 0v1102h308v-1102h-308zM156 1251l260 363l317 -133l-284 -230h-293z" />
<glyph unicode="&#xee;" horiz-adv-x="598" d="M-84 1251l231 324h302l231 -324h-231l-152 146l-150 -146h-231zM145 0v1102h308v-1102h-308z" />
<glyph unicode="&#xef;" horiz-adv-x="598" d="M-49 1415.5q0 63.5 44 107.5t107.5 44t107.5 -44t44 -107.5t-44 -107.5t-107.5 -44t-107.5 44t-44 107.5zM145 0v1102h308v-1102h-308zM346 1415.5q0 63.5 44 107.5t107.5 44t107.5 -44t44 -107.5t-44 -107.5t-107.5 -44t-107.5 44t-44 107.5z" />
<glyph unicode="&#xf0;" horiz-adv-x="1222" d="M90 484.5q0 220.5 147.5 361.5t356.5 141q53 0 94 -8q-41 51 -127 145l-176 -114l-166 159l180 117q-31 27 -67 57l-76 64l252 149q86 -70 141 -120l162 106l170 -160l-170 -112q324 -371 324 -717q0 -256 -136.5 -412.5t-373 -156.5t-386 140t-149.5 360.5zM393 485.5 q0 -100.5 59.5 -172t159 -71.5t159.5 71.5t60 172t-61 172t-159.5 71.5t-158 -71.5t-59.5 -172z" />
<glyph unicode="&#xf1;" horiz-adv-x="1308" d="M145 0v1102h308v-123q139 141 313 141t292 -123t118 -327v-670h-308v623q0 254 -186 254q-92 0 -160.5 -67t-68.5 -196v-614h-308zM270 1251q0 154 66.5 242t171.5 88q66 0 159 -56.5t113 -56.5q63 0 62 107h217q0 -154 -66.5 -242t-171.5 -88q-63 0 -159.5 56.5 t-112.5 56.5q-63 0 -62 -107h-217z" />
<glyph unicode="&#xf2;" horiz-adv-x="1327" d="M82 551q0 240 166 404.5t416.5 164.5t416.5 -164.5t166 -404.5t-166 -403.5t-416.5 -163.5t-416.5 163.5t-166 403.5zM252 1481l315 135l262 -365h-292zM391 551q0 -135 77 -220t196.5 -85t196.5 85t77 220t-77 221t-196.5 86t-196.5 -86t-77 -221z" />
<glyph unicode="&#xf3;" horiz-adv-x="1327" d="M82 551q0 240 166 404.5t416.5 164.5t416.5 -164.5t166 -404.5t-166 -403.5t-416.5 -163.5t-416.5 163.5t-166 403.5zM391 551q0 -135 77 -220t196.5 -85t196.5 85t77 220t-77 221t-196.5 86t-196.5 -86t-77 -221zM487 1251l261 363l317 -133l-285 -230h-293z" />
<glyph unicode="&#xf4;" horiz-adv-x="1327" d="M82 551q0 240 166 404.5t416.5 164.5t416.5 -164.5t166 -404.5t-166 -403.5t-416.5 -163.5t-416.5 163.5t-166 403.5zM250 1251l231 324h383l232 -324h-252l-172 166l-170 -166h-252zM391 551q0 -135 77 -220t196.5 -85t196.5 85t77 220t-77 221t-196.5 86t-196.5 -86 t-77 -221z" />
<glyph unicode="&#xf5;" horiz-adv-x="1327" d="M82 551q0 240 166 404.5t416.5 164.5t416.5 -164.5t166 -404.5t-166 -403.5t-416.5 -163.5t-416.5 163.5t-166 403.5zM272 1251q0 154 67 242t171 88q66 0 159 -56.5t113 -56.5q63 0 62 107h217q0 -154 -66.5 -242t-171.5 -88q-63 0 -159.5 56.5t-112.5 56.5 q-63 0 -62 -107h-217zM391 551q0 -135 77 -220t196.5 -85t196.5 85t77 220t-77 221t-196.5 86t-196.5 -86t-77 -221z" />
<glyph unicode="&#xf6;" horiz-adv-x="1327" d="M82 551q0 240 166 404.5t416.5 164.5t416.5 -164.5t166 -404.5t-166 -403.5t-416.5 -163.5t-416.5 163.5t-166 403.5zM315 1415.5q0 63.5 44 107.5t107.5 44t107.5 -44t44 -107.5t-44 -107.5t-107.5 -44t-107.5 44t-44 107.5zM391 551q0 -135 77 -220t196.5 -85t196.5 85 t77 220t-77 221t-196.5 86t-196.5 -86t-77 -221zM711 1415.5q0 63.5 44 107.5t107.5 44t107.5 -44t44 -107.5t-44 -107.5t-107.5 -44t-107.5 44t-44 107.5z" />
<glyph unicode="&#xf7;" horiz-adv-x="1191" d="M98 590v252h996v-252h-996zM416 327.5q0 75.5 52 128t128 52.5t128 -52.5t52 -128t-52 -128t-128 -52.5t-128 52.5t-52 128zM416 1104q0 76 52 128t128 52t128 -52t52 -128t-52 -128t-128 -52t-128 52t-52 128z" />
<glyph unicode="&#xf8;" horiz-adv-x="1327" d="M82 551q0 240 166 404.5t416 164.5q72 0 131 -14l77 174h291l-129 -283q213 -170 213 -446q0 -240 -165.5 -403.5t-417.5 -163.5q-45 0 -93 6l-90 -197h-288l133 291q-115 78 -179.5 201t-64.5 266zM391 560q0 -126 58 -206l231 504h-16q-119 0 -196 -86t-77 -212z M690 248q111 10 179.5 93t68.5 191.5t-35 178.5z" />
<glyph unicode="&#xf9;" horiz-adv-x="1310" d="M133 434v668h309v-600q0 -254 187 -254q92 0 159.5 66.5t67.5 193.5v594h309v-1102h-309v145q-115 -162 -296 -161.5t-304 114t-123 336.5zM248 1481l315 135l262 -365h-293z" />
<glyph unicode="&#xfa;" horiz-adv-x="1310" d="M133 434v668h309v-600q0 -254 187 -254q92 0 159.5 66.5t67.5 193.5v594h309v-1102h-309v145q-115 -162 -296 -161.5t-304 114t-123 336.5zM483 1251l260 363l318 -133l-285 -230h-293z" />
<glyph unicode="&#xfb;" horiz-adv-x="1310" d="M133 434v668h309v-600q0 -254 187 -254q92 0 159.5 66.5t67.5 193.5v594h309v-1102h-309v145q-115 -162 -296 -161.5t-304 114t-123 336.5zM231 1251l232 324h383l231 -324h-252l-172 166l-170 -166h-252z" />
<glyph unicode="&#xfc;" horiz-adv-x="1310" d="M133 434v668h309v-600q0 -254 187 -254q92 0 159.5 66.5t67.5 193.5v594h309v-1102h-309v145q-115 -162 -296 -161.5t-304 114t-123 336.5zM293 1415.5q0 63.5 44 107.5t107.5 44t107.5 -44t44 -107.5t-44 -107.5t-107.5 -44t-107.5 44t-44 107.5zM688 1415.5 q0 63.5 44 107.5t107.5 44t107.5 -44t44 -107.5t-44 -107.5t-107.5 -44t-107.5 44t-44 107.5z" />
<glyph unicode="&#xfd;" horiz-adv-x="1208" d="M8 1102h328l268 -686l268 686h328l-512 -1299q-45 -113 -140 -175t-212 -62q-162 0 -305 131l139 227q78 -76 160 -76q43 0 73.5 42t30.5 89.5t-426 1122.5zM424 1251l260 363l317 -133l-284 -230h-293z" />
<glyph unicode="&#xfe;" horiz-adv-x="1363" d="M145 -397v1917h308v-510q123 111 295 110q215 0 373.5 -153.5t158.5 -409.5t-158.5 -414.5t-369.5 -158.5q-164 0 -299 104v-485h-308zM449 550q0 -134 74.5 -219t181 -85t186.5 85t80 218t-78 223t-186.5 90t-183 -89t-74.5 -223z" />
<glyph unicode="&#xff;" horiz-adv-x="1208" d="M8 1102h328l268 -686l268 686h328l-512 -1299q-45 -113 -140 -175t-212 -62q-162 0 -305 131l139 227q78 -76 160 -76q43 0 73.5 42t30.5 89.5t-426 1122.5zM254 1415.5q0 63.5 44 107.5t107.5 44t107.5 -44t44 -107.5t-44 -107.5t-107.5 -44t-107.5 44t-44 107.5z M649 1415.5q0 63.5 44 107.5t107.5 44t107.5 -44t44 -107.5t-44 -107.5t-107.5 -44t-107.5 44t-44 107.5z" />
<glyph unicode="&#x131;" horiz-adv-x="598" d="M145 0v1102h308v-1102h-308z" />
<glyph unicode="&#x141;" horiz-adv-x="1196" d="M57 365v276l152 49v740h319v-639l420 133v-279l-420 -133v-227h611v-285h-930v412z" />
<glyph unicode="&#x142;" horiz-adv-x="743" d="M74 403v279l157 45v703h310v-615l143 43v-278l-143 -41v-539h-310v451z" />
<glyph unicode="&#x143;" horiz-adv-x="1673" d="M176 0v1432h299l703 -922v922h319v-1432h-319l-682 897v-897h-320zM672 1579l260 363l317 -134l-284 -229h-293z" />
<glyph unicode="&#x144;" horiz-adv-x="1308" d="M145 0v1102h308v-123q139 141 313 141t292 -123t118 -327v-670h-308v623q0 254 -186 254q-92 0 -160.5 -67t-68.5 -196v-614h-308zM483 1251l260 363l318 -133l-285 -230h-293z" />
<glyph unicode="&#x152;" horiz-adv-x="2134" d="M96 715q0 305 210 510t519 205h1178v-283h-713v-295h639v-272h-639v-297h735v-283h-1200q-309 0 -519 205t-210 510zM436 715.5q0 -185.5 119 -316.5t291 -131h123v893h-123q-172 0 -291 -130t-119 -315.5z" />
<glyph unicode="&#x153;" horiz-adv-x="2119" d="M82 551q0 240 166 404.5t419 164.5t420 -172q162 172 400.5 172t397.5 -137t159 -377v-164h-803q14 -90 94 -147t181 -57q162 0 266 108l172 -186q-186 -176 -447.5 -176t-421.5 170q-166 -170 -418.5 -170t-418.5 163.5t-166 403.5zM391 551q0 -135 77 -220t194.5 -85 t194.5 81t81 210v14q0 135 -77 221t-196.5 86t-196.5 -86t-77 -221zM1249 662h484q-11 98 -74.5 151t-154.5 53t-166.5 -55t-88.5 -149z" />
<glyph unicode="&#x192;" horiz-adv-x="1447" d="M55 -283l135 224q88 -84 181 -84q111 0 129 139l88 651h-129l26 221h133l41 295q25 187 146 287t292 100t289 -127l-147 -227q-45 72 -135 72q-47 0 -84 -35t-49 -100l-37 -265h272l-26 -221h-277l-90 -653q-27 -184 -137.5 -296t-293.5 -112t-327 131z" />
<glyph unicode="&#x2c6;" horiz-adv-x="989" d="M72 1579l231 324h383l232 -324h-252l-172 166l-170 -166h-252z" />
<glyph unicode="&#x2da;" horiz-adv-x="847" d="M205 1440q0 90 64.5 154.5t154.5 64.5t154.5 -64.5t64.5 -154.5t-64.5 -154.5t-154.5 -64.5t-154.5 64.5t-64.5 154.5zM352 1439.5q0 -28.5 21.5 -50t50.5 -21.5t50.5 21.5t21.5 50t-21.5 50t-50.5 21.5t-50.5 -21.5t-21.5 -50z" />
<glyph unicode="&#x2dc;" horiz-adv-x="1198" d="M219 1251q0 154 66.5 242t171.5 88q66 0 159 -56.5t113 -56.5q63 0 62 107h217q0 -154 -67 -242t-171 -88q-63 0 -159.5 56.5t-112.5 56.5q-63 0 -62 -107h-217z" />
<glyph unicode="&#x3c0;" horiz-adv-x="1523" d="M47 764q0 141 109.5 239.5t285.5 98.5h1016v-268h-196v-834h-308v834h-213q-8 -197 -50 -445t-95 -389h-291q57 170 98 408.5t46 425.5q-132 0 -132 -86q0 -35 27 -89l-254 -71q-43 86 -43 176z" />
<glyph unicode="&#x2000;" horiz-adv-x="971" />
<glyph unicode="&#x2001;" horiz-adv-x="1942" />
<glyph unicode="&#x2002;" horiz-adv-x="971" />
<glyph unicode="&#x2003;" horiz-adv-x="1942" />
<glyph unicode="&#x2004;" horiz-adv-x="647" />
<glyph unicode="&#x2005;" horiz-adv-x="485" />
<glyph unicode="&#x2006;" horiz-adv-x="323" />
<glyph unicode="&#x2007;" horiz-adv-x="323" />
<glyph unicode="&#x2008;" horiz-adv-x="242" />
<glyph unicode="&#x2009;" horiz-adv-x="388" />
<glyph unicode="&#x200a;" horiz-adv-x="107" />
<glyph unicode="&#x2010;" horiz-adv-x="1003" d="M137 479v273h729v-273h-729z" />
<glyph unicode="&#x2011;" horiz-adv-x="1003" d="M137 479v273h729v-273h-729z" />
<glyph unicode="&#x2012;" horiz-adv-x="1003" d="M137 479v273h729v-273h-729z" />
<glyph unicode="&#x2013;" horiz-adv-x="1112" d="M152 440v199h809v-199h-809z" />
<glyph unicode="&#x2014;" horiz-adv-x="1427" d="M131 442v197h1165v-197h-1165z" />
<glyph unicode="&#x2018;" horiz-adv-x="491" d="M74 1081.5q0 71.5 45 141.5l149 217h168l-92 -219q68 -45 68 -126t-48.5 -128t-121 -47t-120.5 45t-48 116.5z" />
<glyph unicode="&#x2019;" horiz-adv-x="491" d="M55 913l92 220q-68 45 -67.5 125.5t48.5 128t121 47.5t121 -45.5t48 -117t-45 -141.5l-150 -217h-168z" />
<glyph unicode="&#x201a;" horiz-adv-x="491" d="M55 -197l92 220q-68 45 -67.5 125.5t48.5 128t121 47.5t121 -45.5t48 -117t-45 -141.5l-150 -217h-168z" />
<glyph unicode="&#x201c;" horiz-adv-x="870" d="M74 1081.5q0 71.5 45 141.5l149 217h168l-92 -219q68 -45 68 -126t-48.5 -128t-121 -47t-120.5 45t-48 116.5zM453 1081.5q0 71.5 45 141.5l149 217h168l-92 -219q68 -45 68 -126t-48.5 -128t-121 -47t-120.5 45t-48 116.5z" />
<glyph unicode="&#x201d;" horiz-adv-x="870" d="M55 913l92 220q-68 45 -67.5 125.5t48.5 128t121 47.5t121 -45.5t48 -117t-45 -141.5l-150 -217h-168zM434 913l92 220q-68 45 -67.5 125.5t48.5 128t120.5 47.5t121 -45.5t48.5 -117t-45 -141.5l-150 -217h-168z" />
<glyph unicode="&#x201e;" horiz-adv-x="870" d="M55 -197l92 220q-68 45 -67.5 125.5t48.5 128t121 47.5t121 -45.5t48 -117t-45 -141.5l-150 -217h-168zM434 -197l92 220q-68 45 -67.5 125.5t48.5 128t120.5 47.5t121 -45.5t48.5 -117t-45 -141.5l-150 -217h-168z" />
<glyph unicode="&#x2020;" horiz-adv-x="1101" d="M72 764v266h323v402h297v-402h338v-266h-338v-1143h-297v1143h-323z" />
<glyph unicode="&#x2021;" horiz-adv-x="1093" d="M78 764v266h317v402h299v-402h324v-266h-324v-391h203v-228h-203v-524h-299v524h-209v228h209v391h-317z" />
<glyph unicode="&#x2022;" horiz-adv-x="897" d="M164 649q0 119 83 202t201.5 83t201.5 -83t83 -202t-83 -201.5t-201.5 -82.5t-201.5 82.5t-83 201.5z" />
<glyph unicode="&#x2026;" horiz-adv-x="1435" d="M117 162q0 76 52 128t128 52t128 -52t52 -128t-52 -128t-128 -52t-128 52t-52 128zM537 162q0 76 52 128t128 52t128 -52t52 -128t-52 -128t-128 -52t-128 52t-52 128zM958 162q0 76 52.5 128t128 52t128 -52t52.5 -128t-52.5 -128t-128 -52t-128 52t-52.5 128z" />
<glyph unicode="&#x202f;" horiz-adv-x="388" />
<glyph unicode="&#x2030;" horiz-adv-x="2287" d="M92 1109q0 120 86 204t216 84t216 -84t86 -205t-86 -204t-216 -83t-216 84t-86 204zM104 0l1029 1432h350l-1026 -1432h-353zM309 1108q0 -45 23.5 -72.5t60.5 -27.5t61.5 27.5t24.5 72.5t-24.5 74.5t-60.5 29.5t-60.5 -29.5t-24.5 -74.5zM899 271.5q0 119.5 86 203.5 t216 84t216 -84t86 -204.5t-86 -203.5t-216 -83t-216 84t-86 203.5zM1116 270q0 -45 23.5 -72.5t60.5 -27.5t61.5 27.5t24.5 72.5t-24.5 75t-60.5 30t-60.5 -30t-24.5 -75zM1614 271.5q0 119.5 86 203.5t216 84t216 -84t86 -204.5t-86 -203.5t-216 -83t-216 84t-86 203.5z M1831 270q0 -45 23.5 -72.5t60.5 -27.5t61.5 27.5t24.5 72.5t-24.5 75t-60.5 30t-60.5 -30t-24.5 -75z" />
<glyph unicode="&#x2039;" horiz-adv-x="776" d="M98 502l250 377h309l-241 -377l241 -379h-309z" />
<glyph unicode="&#x203a;" horiz-adv-x="776" d="M119 123l241 379l-241 377h309l250 -377l-250 -379h-309z" />
<glyph unicode="&#x2044;" horiz-adv-x="1355" d="M-10 0l1026 1430h352l-1028 -1430h-350z" />
<glyph unicode="&#x205f;" horiz-adv-x="485" />
<glyph unicode="&#x20ac;" horiz-adv-x="1568" d="M94 485v172h172q-2 18 -2 59.5t2 61.5h-172v172h199q61 233 234 373.5t421 140.5q307 0 527 -247l-183 -238q-150 182 -352 182q-229 0 -317 -211h477v-172h-514q-2 -20 -2 -61t2 -60h514v-172h-467q49 -96 134 -147t187 -51q203 0 332 162l189 -209 q-111 -129 -255.5 -192.5t-287.5 -63.5q-231 0 -403.5 136t-235.5 365h-199z" />
<glyph unicode="&#x2122;" horiz-adv-x="2027" d="M129 1221v211h700v-211h-237v-654h-225v654h-238zM883 567v865h286l203 -431l203 431h285v-865h-226v459l-192 -391h-142l-192 391v-459h-225z" />
<glyph unicode="&#x2202;" horiz-adv-x="1247" d="M90 483q0 209 137.5 318.5t321.5 109.5t297 -98q0 201 -92 297t-210 96t-229 -73l-145 200q184 133 393 133q242 0 406 -187t164 -544q0 -315 -119 -522q-61 -109 -172 -169t-260 -60q-211 0 -351.5 145t-140.5 354zM389 463q0 -88 52.5 -141.5t146.5 -53.5t158.5 70 t68.5 194q-103 113 -244 113q-78 0 -130 -47t-52 -135z" />
<glyph unicode="&#x2206;" horiz-adv-x="1644" d="M61 0l617 1430h289l616 -1430h-1522zM522 279h598l-299 686z" />
<glyph unicode="&#x220f;" horiz-adv-x="1613" d="M170 -434v2048h1274v-2048h-332v1761h-610v-1761h-332z" />
<glyph unicode="&#x2211;" horiz-adv-x="1454" d="M78 -186l575 792l-549 783v215h1227v-287h-782l487 -709l-524 -721h858v-286h-1292v213z" />
<glyph unicode="&#x221a;" horiz-adv-x="1478" d="M49 606v260h436l228 -729l448 1413h314l-601 -1869h-327l-295 925h-203z" />
<glyph unicode="&#x221e;" horiz-adv-x="1755" d="M135 543q0 166 100.5 275.5t266.5 109.5q199 0 375 -203q176 203 374 203q168 0 267.5 -109.5t99.5 -275.5t-102.5 -274.5t-272.5 -108.5q-115 0 -196.5 48t-169.5 142q-88 -94 -170 -142t-197 -48q-170 0 -272.5 108.5t-102.5 274.5zM403 547.5q0 -58.5 29 -99t76 -40.5 q80 0 203 131q-135 145 -209 145q-43 0 -71 -39t-28 -97.5zM1044 539q119 -131 201 -131q47 0 76 40.5t29 99t-27 97.5t-72 39q-72 0 -207 -145z" />
<glyph unicode="&#x222b;" horiz-adv-x="892" d="M20 -281l43 244q70 -35 123 -35q80 0 115 80t35 251t-15.5 460t-15.5 452.5t16.5 257t55.5 170.5q84 160 303 160q109 0 186 -43l-35 -241q-63 20 -104 20q-78 0 -109.5 -65.5t-31.5 -204t14 -461t14 -541.5q0 -555 -378 -555q-49 0 -116 16.5t-100 34.5z" />
<glyph unicode="&#x2248;" horiz-adv-x="1376" d="M166 397q0 203 89 321t228 118q90 0 210 -75t151 -75q82 0 82 129v12h288q0 -205 -88 -321.5t-227 -116.5q-68 0 -115 22.5t-75.5 40t-58 35t-44.5 25.5q-42 27 -69 27q-84 0 -82 -142h-289zM166 891q0 203 89 320.5t228 117.5q90 0 210 -74.5t151 -74.5q82 0 82 129v12 h288q0 -205 -88 -321.5t-227 -116.5q-68 0 -115 22.5t-75.5 40t-58 34.5t-44.5 28q-42 24 -69 24q-84 0 -82 -141h-289z" />
<glyph unicode="&#x2260;" horiz-adv-x="1320" d="M129 438v248h340l84 186h-424v248h537l143 312h291l-144 -312h232v-248h-344l-86 -186h430v-248h-543l-143 -313h-289l143 313h-227z" />
<glyph unicode="&#x2264;" horiz-adv-x="1271" d="M127 104h997v-247h-997v247zM127 668v280l995 469v-301l-657 -303l657 -311v-303z" />
<glyph unicode="&#x2265;" horiz-adv-x="1271" d="M147 104h998v-247h-998v247zM150 199v303l657 311l-657 303v301l995 -469v-280z" />
<glyph unicode="&#x25ca;" horiz-adv-x="1302" d="M172 68v890h958v-890h-958z" />
<glyph unicode="&#x25fc;" horiz-adv-x="1100" d="M0 0v1100h1100v-1100h-1100z" />
<glyph unicode="&#xfb01;" horiz-adv-x="1421" d="M74 870v222h129v67q0 180 109.5 285.5t272.5 105.5t296 -123l-111 -206q-68 78 -149 77q-47 0 -78 -33.5t-31 -99.5v-73h266v-222h-266v-870h-309v870h-129zM942 1370q0 76 52.5 128t128 52t128 -52t52.5 -128t-52.5 -128t-128 -52t-128 52t-52.5 128zM969 0v1102h307 v-1102h-307z" />
<glyph unicode="&#xfb02;" horiz-adv-x="1421" d="M74 870v222h129v67q0 180 109.5 285.5t272.5 105.5t296 -123l-111 -206q-68 78 -149 77q-47 0 -78 -33.5t-31 -99.5v-73h266v-222h-266v-870h-309v870h-129zM969 0v1520h307v-1520h-307z" />
</font>
</defs>
</svg>
